HIERARCHY
ROOT hip
{
  OFFSET 0 0 0
  CHANNELS 6 Xposition Yposition Zposition Zrotation Yrotation Xrotation
  JOINT abdomen
  {
    OFFSET 0 20.6881 -0.73152
    CHANNELS 3 Zrotation Xrotation Yrotation
    JOINT chest
    {
      OFFSET 0 11.7043 -0.48768
      CHANNELS 3 Zrotation Xrotation Yrotation
      JOINT neck
      {
        OFFSET 0 22.1894 -2.19456
        CHANNELS 3 Zrotation Xrotation Yrotation
        JOINT head
        {
          OFFSET -0.24384 7.07133 1.2192
          CHANNELS 3 Zrotation Xrotation Yrotation
          JOINT leftEye
          {
            OFFSET 4.14528 8.04674 8.04672
            CHANNELS 3 Zrotation Xrotation Yrotation
            End Site
            {
              OFFSET 1 0 0
            }
          }
          JOINT rightEye
          {
            OFFSET -3.6576 8.04674 8.04672
            CHANNELS 3 Zrotation Xrotation Yrotation
            End Site
            {
              OFFSET 1 0 0
            }
          }
        }
      }
      JOINT rCollar
      {
        OFFSET -2.68224 19.2634 -4.8768
        CHANNELS 3 Zrotation Xrotation Yrotation
        JOINT rShldr
        {
          OFFSET -8.77824 -1.95073 1.46304
          CHANNELS 3 Zrotation Xrotation Yrotation
          JOINT rForeArm
          {
            OFFSET -28.1742 -1.7115 0.48768
            CHANNELS 3 Zrotation Xrotation Yrotation
            JOINT rHand
            {
              OFFSET -22.5879 0.773209 7.07136
              CHANNELS 3 Zrotation Xrotation Yrotation
              JOINT rThumb1
              {
                OFFSET -1.2192 -0.487915 3.41376
                CHANNELS 3 Zrotation Xrotation Yrotation
                JOINT rThumb2
                {
                  OFFSET -3.37035 -0.52449 3.41376
                  CHANNELS 3 Zrotation Xrotation Yrotation
                  End Site
                  {
                    OFFSET -1.78271 -1.18214 1.43049
                  }
                }
              }
              JOINT rIndex1
              {
                OFFSET -7.75947 0.938293 5.60832
                CHANNELS 3 Zrotation Xrotation Yrotation
                JOINT rIndex2
                {
                  OFFSET -2.54057 -0.884171 1.56538
                  CHANNELS 3 Zrotation Xrotation Yrotation
                  End Site
                  {
                    OFFSET -1.62519 -0.234802 1.16502
                  }
                }
              }
              JOINT rMid1
              {
                OFFSET -8.24714 1.18213 3.41376
                CHANNELS 3 Zrotation Xrotation Yrotation
                JOINT rMid2
                {
                  OFFSET -3.10165 -0.590103 1.0647
                  CHANNELS 3 Zrotation Xrotation Yrotation
                  End Site
                  {
                    OFFSET -2.48547 -0.328903 0.83742
                  }
                }
              }
              JOINT rRing1
              {
                OFFSET -8.82822 0.546677 1.51678
                CHANNELS 3 Zrotation Xrotation Yrotation
                JOINT rRing2
                {
                  OFFSET -2.60934 -0.819778 -0.0198488
                  CHANNELS 3 Zrotation Xrotation Yrotation
                  End Site
                  {
                    OFFSET -2.33842 -0.294052 0.168128
                  }
                }
              }
              JOINT rPinky1
              {
                OFFSET -8.27202 -0.0477905 -0.4584
                CHANNELS 3 Zrotation Xrotation Yrotation
                JOINT rPinky2
                {
                  OFFSET -1.82734 -0.647385 -0.700984
                  CHANNELS 3 Zrotation Xrotation Yrotation
                  End Site
                  {
                    OFFSET -1.69225 -0.51767 -0.607171
                  }
                }
              }
            }
          }
        }
      }
      JOINT lCollar
      {
        OFFSET 2.68224 19.2634 -4.8768
        CHANNELS 3 Zrotation Xrotation Yrotation
        JOINT lShldr
        {
          OFFSET 8.77824 -1.95073 1.46304
          CHANNELS 3 Zrotation Xrotation Yrotation
          JOINT lForeArm
          {
            OFFSET 28.1742 -1.7115 0.48768
            CHANNELS 3 Zrotation Xrotation Yrotation
            JOINT lHand
            {
              OFFSET 22.5879 0.773209 7.07136
              CHANNELS 3 Zrotation Xrotation Yrotation
              JOINT lThumb1
              {
                OFFSET 1.2192 -0.487915 3.41376
                CHANNELS 3 Zrotation Xrotation Yrotation
                JOINT lThumb2
                {
                  OFFSET 3.37035 -0.52449 3.41376
                  CHANNELS 3 Zrotation Xrotation Yrotation
                  End Site
                  {
                    OFFSET 1.78271 -1.18214 1.43049
                  }
                }
              }
              JOINT lIndex1
              {
                OFFSET 7.75947 0.938293 5.60832
                CHANNELS 3 Zrotation Xrotation Yrotation
                JOINT lIndex2
                {
                  OFFSET 2.54057 -0.884171 1.56538
                  CHANNELS 3 Zrotation Xrotation Yrotation
                  End Site
                  {
                    OFFSET 1.62519 -0.234802 1.16502
                  }
                }
              }
              JOINT lMid1
              {
                OFFSET 8.24714 1.18213 3.41376
                CHANNELS 3 Zrotation Xrotation Yrotation
                JOINT lMid2
                {
                  OFFSET 3.10165 -0.590103 1.0647
                  CHANNELS 3 Zrotation Xrotation Yrotation
                  End Site
                  {
                    OFFSET 2.48547 -0.328903 0.83742
                  }
                }
              }
              JOINT lRing1
              {
                OFFSET 8.82822 0.546677 1.51678
                CHANNELS 3 Zrotation Xrotation Yrotation
                JOINT lRing2
                {
                  OFFSET 2.60934 -0.819778 -0.0198488
                  CHANNELS 3 Zrotation Xrotation Yrotation
                  End Site
                  {
                    OFFSET 2.33842 -0.294052 0.168128
                  }
                }
              }
              JOINT lPinky1
              {
                OFFSET 8.27202 -0.0477905 -0.4584
                CHANNELS 3 Zrotation Xrotation Yrotation
                JOINT lPinky2
                {
                  OFFSET 1.82734 -0.647385 -0.700984
                  CHANNELS 3 Zrotation Xrotation Yrotation
                  End Site
                  {
                    OFFSET 1.69225 -0.51767 -0.607171
                  }
                }
              }
            }
          }
        }
      }
    }
  }
  JOINT rButtock
  {
    OFFSET -8.77824 4.35084 1.2192
    CHANNELS 3 Zrotation Xrotation Yrotation
    JOINT rThigh
    {
      OFFSET 0 -1.70687 -2.19456
      CHANNELS 3 Zrotation Xrotation Yrotation
      JOINT rShin
      {
        OFFSET 0 -36.8199 0.73152
        CHANNELS 3 Zrotation Xrotation Yrotation
        JOINT rFoot
        {
          OFFSET 0.73152 -45.1104 -5.12064
          CHANNELS 3 Zrotation Xrotation Yrotation
          End Site
          {
            OFFSET -1.1221 -3.69964 12.103
          }
        }
      }
    }
  }
  JOINT lButtock
  {
    OFFSET 8.77824 4.35084 1.2192
    CHANNELS 3 Zrotation Xrotation Yrotation
    JOINT lThigh
    {
      OFFSET 0 -1.70687 -2.19456
      CHANNELS 3 Zrotation Xrotation Yrotation
      JOINT lShin
      {
        OFFSET 0 -36.8199 0.73152
        CHANNELS 3 Zrotation Xrotation Yrotation
        JOINT lFoot
        {
          OFFSET -0.73152 -45.1104 -5.12064
          CHANNELS 3 Zrotation Xrotation Yrotation
          End Site
          {
            OFFSET 1.1221 -3.69964 12.103
          }
        }
      }
    }
  }
}
MOTION
Frames:	7
Frame Time:	0.00833333
0.43433 76.1267 54.1341 -4.1459 -2.6734 2.529 8.18794 16.7947 -1.27642 1.7256 -8.37572 0.297838 -2.09962 -4.09835 -3.31549 2.07528 -12.8832 -5.66673 -0.0 0.0 0.0 -0.0 0.0 0.0 3.31946e-14 4.29344e-14 4.17448e-15 87.4516 43.4915 -7.53837 -28.2626 -38.6881 81.6015 -0.48822 -19.461 -2.84651 1.59324e-10 -3.53463e-09 6.2816e-10 2.65318e-10 -6.00615e-09 1.08782e-09 1.59327e-10 -3.53463e-09 6.28144e-10 7.73091 5.47488 0.417314 1.59325e-10 -3.53463e-09 6.2815e-10 2.90554 0.965183 0.102902 1.59332e-10 -3.53462e-09 6.28152e-10 10.2786 0.731801 0.0259123 1.59319e-10 -3.53462e-09 6.28163e-10 2.22167 -0.733487 -0.20892 3.32017e-14 4.29412e-14 3.77691e-15 -90.2588 44.4691 12.9518 28.0566 -40.1053 -84.1105 1.35003 -31.0596 4.85558 -5.69518e-10 -5.69354e-09 -5.86268e-10 -9.70631e-10 -9.81054e-09 -1.02589e-09 -5.69523e-10 -5.69354e-09 -5.86256e-10 -7.73091 5.47488 -0.417314 -5.69521e-10 -5.69354e-09 -5.86256e-10 -2.90554 0.965183 -0.102902 -5.69527e-10 -5.69354e-09 -5.86259e-10 -10.2786 0.731801 -0.0259123 -5.69514e-10 -5.69354e-09 -5.86272e-10 -2.22167 -0.733487 0.20892 -2.03217e-16 0.0 -3.88251e-19 17.4653 -33.4423 3.62065 -0.892076 55.7615 0.95722 -7.16231 -15.2167 -17.7594 2.03217e-16 0.0 3.88251e-19 8.45352 -27.477 3.70347 149.182 87.906 -149.854 3.54959 22.3741 -14.599
0.443991 76.0515 56.3801 -3.6609 -2.1078 2.5379 8.22783 16.9577 -1.34521 1.79198 -8.51065 0.281322 -2.05803 -4.15755 -3.37978 2.09357 -13.0911 -5.80381 -0.0 0.0 0.0 -0.0 0.0 0.0 1.66091e-14 2.62883e-14 -8.96589e-15 85.7245 43.7733 -5.13791 -28.2451 -38.8533 81.8811 -0.497602 -19.6391 -2.87471 3.74532e-11 3.03226e-09 8.83988e-11 6.31961e-11 5.31768e-09 1.52615e-10 3.74553e-11 3.03226e-09 8.83845e-11 7.73091 5.47488 0.417314 3.74535e-11 3.03225e-09 8.83927e-11 2.90554 0.965183 0.102902 3.74608e-11 3.03227e-09 8.83933e-11 10.2786 0.731801 0.0259123 3.74471e-11 3.03227e-09 8.84044e-11 2.22167 -0.733487 -0.20892 1.6622e-14 2.62908e-14 -9.37161e-15 -91.1552 44.666 14.2515 28.0609 -40.0717 -84.0564 1.35881 -31.1482 4.87262 -1.41777e-10 -1.37276e-09 -8.48453e-11 -2.43622e-10 -2.36787e-09 -1.49074e-10 -1.41781e-10 -1.37276e-09 -8.4835e-11 -7.73091 5.47488 -0.417314 -1.41779e-10 -1.37276e-09 -8.48341e-11 -2.90554 0.965183 -0.102902 -1.41784e-10 -1.37276e-09 -8.48374e-11 -10.2786 0.731801 -0.0259123 -1.41772e-10 -1.37276e-09 -8.48498e-11 -2.22167 -0.733487 0.20892 -2.03217e-16 0.0 -3.88251e-19 17.2516 -32.0136 3.10314 -0.886697 56.0206 1.05404 -8.07926 -16.4577 -19.0245 2.03217e-16 0.0 3.88251e-19 8.68529 -30.7324 3.41004 162.735 86.2633 -163.369 2.96741 21.2693 -13.412
0.473246 75.9096 58.569 -3.4116 -1.1906 2.7358 8.03876 17.1365 -1.4893 1.89802 -8.71017 0.236452 -2.02744 -4.18924 -3.478 2.1124 -13.2549 -6.00634 -0.0 0.0 0.0 -0.0 0.0 0.0 -1.27496e-14 4.0025e-16 -1.50176e-14 84.1356 43.8738 -2.89915 -28.2107 -39.1226 82.3532 -0.509041 -19.8523 -2.90857 -1.3715e-10 1.31427e-08 -5.46978e-10 -2.28452e-10 2.27676e-08 -9.4847e-10 -1.37148e-10 1.31427e-08 -5.4699e-10 7.73091 5.47488 0.417314 -1.37151e-10 1.31427e-08 -5.46979e-10 2.90554 0.965183 0.102902 -1.37143e-10 1.31427e-08 -5.4698e-10 10.2786 0.731801 0.0259123 -1.37158e-10 1.31427e-08 -5.46969e-10 2.22167 -0.733487 -0.20892 -1.27298e-14 3.95361e-16 -1.54182e-14 -92.0399 45.0017 15.6037 28.0524 -40.1198 -84.1432 1.3743 -31.3032 4.90251 3.84498e-10 3.10953e-09 4.66719e-10 6.52743e-10 5.33573e-09 8.16596e-10 3.84496e-10 3.10953e-09 4.66725e-10 -7.73091 5.47488 -0.417314 3.84497e-10 3.10953e-09 4.66726e-10 -2.90554 0.965183 -0.102902 3.84493e-10 3.10953e-09 4.66723e-10 -10.2786 0.731801 -0.0259123 3.84504e-10 3.10953e-09 4.66712e-10 -2.22167 -0.733487 0.20892 -2.03217e-16 0.0 -3.88251e-19 16.641 -30.4304 2.23152 -0.863063 56.025 1.14192 -8.90429 -17.6126 -20.0345 2.03217e-16 0.0 3.88251e-19 8.33353 -33.9136 2.76796 166.84 84.9987 -167.437 2.4279 20.1244 -12.0823
0.492614 75.8806 60.776 -3.477 0.1081 2.7586 7.81352 17.2537 -1.52463 1.96499 -8.90555 0.214964 -2.01525 -4.19026 -3.59496 2.13651 -13.3482 -6.24126 -0.0 0.0 0.0 -0.0 0.0 0.0 -3.89283e-14 -2.36987e-14 -1.65919e-14 82.7011 43.8543 -0.858737 -28.1645 -39.4403 82.9213 -0.521573 -20.0819 -2.94516 -2.86355e-10 2.23027e-08 -1.06322e-09 -4.78006e-10 3.85745e-08 -1.84319e-09 -2.86354e-10 2.23027e-08 -1.06323e-09 7.73091 5.47488 0.417314 -2.86358e-10 2.23027e-08 -1.06322e-09 2.90554 0.965183 0.102902 -2.86349e-10 2.23027e-08 -1.06322e-09 10.2786 0.731801 0.0259123 -2.86366e-10 2.23027e-08 -1.06321e-09 2.22167 -0.733487 -0.20892 -3.89081e-14 -2.37111e-14 -1.6986e-14 -92.9207 45.3964 17.0063 28.036 -40.2149 -84.3114 1.39335 -31.4917 4.93902 8.38486e-10 6.72765e-09 9.10061e-10 1.427e-09 1.155e-08 1.59338e-09 8.38486e-10 6.72765e-09 9.10062e-10 -7.73091 5.47488 -0.417314 8.38486e-10 6.72765e-09 9.10063e-10 -2.90554 0.965183 -0.102902 8.38484e-10 6.72765e-09 9.1006e-10 -10.2786 0.731801 -0.0259123 8.38494e-10 6.72766e-09 9.1005e-10 -2.22167 -0.733487 0.20892 -2.03217e-16 0.0 -3.88251e-19 16.0527 -28.6917 1.40206 -0.827323 55.7853 1.21502 -9.55363 -18.5251 -20.7697 2.03217e-16 0.0 3.88251e-19 7.81607 -36.8896 2.12034 168.515 84.176 -169.08 1.94876 18.885 -10.7641
0.544405 76.0089 63.0901 -3.4291 0.9005 2.8324 7.74363 17.232 -1.26674 1.91489 -9.02805 0.268704 -2.02874 -4.15747 -3.71549 2.17157 -13.3447 -6.47532 -0.0 0.0 0.0 -0.0 0.0 0.0 -4.59736e-14 -3.49778e-14 -1.63003e-14 81.4228 43.7777 0.956929 -28.1155 -39.7543 83.4827 -0.534147 -20.3095 -2.98153 -3.32035e-10 2.60183e-08 -1.24558e-09 -5.53844e-10 4.49692e-08 -2.15931e-09 -3.32034e-10 2.60183e-08 -1.24558e-09 7.73091 5.47488 0.417314 -3.32038e-10 2.60183e-08 -1.24557e-09 2.90554 0.965183 0.102902 -3.32029e-10 2.60183e-08 -1.24557e-09 10.2786 0.731801 0.0259123 -3.32046e-10 2.60183e-08 -1.24556e-09 2.22167 -0.733487 -0.20892 -4.59672e-14 -3.49943e-14 -1.66979e-14 -93.7949 45.7712 18.4493 28.0172 -40.3223 -84.5012 1.41264 -31.681 4.97583 1.04937e-09 8.4559e-09 1.08681e-09 1.78768e-09 1.45245e-08 1.90355e-09 1.04937e-09 8.4559e-09 1.08681e-09 -7.73091 5.47488 -0.417314 1.04937e-09 8.4559e-09 1.08681e-09 -2.90554 0.965183 -0.102902 1.04937e-09 8.45591e-09 1.08681e-09 -10.2786 0.731801 -0.0259123 1.04938e-09 8.45592e-09 1.0868e-09 -2.22167 -0.733487 0.20892 -2.03217e-16 0.0 -3.88251e-19 15.8534 -26.807 0.984157 -0.786476 55.3124 1.26825 -9.9393 -19.0396 -21.2048 2.03217e-16 0.0 3.88251e-19 7.65165 -39.5335 1.8666 169.12 83.8036 -169.66 1.538 17.5035 -9.60873
0.542969 76.2172 65.5254 -3.5526 1.0527 2.981 7.93788 17.02 -0.557674 1.71643 -9.049 0.442898 -2.08672 -4.08612 -3.84023 2.22851 -13.1823 -6.70258 -0.0 0.0 0.0 -0.0 0.0 0.0 -2.08603e-14 -2.63806e-14 -1.26597e-14 80.3116 43.6692 2.51756 -28.0647 -40.069 84.0381 -0.548395 -20.5657 -3.02256 -2.10598e-10 2.12442e-08 -9.13217e-10 -3.48814e-10 3.66845e-08 -1.58348e-09 -2.10597e-10 2.12442e-08 -9.1323e-10 7.73091 5.47488 0.417314 -2.10601e-10 2.12441e-08 -9.13211e-10 2.90554 0.965183 0.102902 -2.10593e-10 2.12442e-08 -9.13216e-10 10.2786 0.731801 0.0259123 -2.10609e-10 2.12442e-08 -9.13206e-10 2.22167 -0.733487 -0.20892 -2.08943e-14 -2.63968e-14 -1.30798e-14 -94.669 46.1547 19.9597 27.9944 -40.4485 -84.7256 1.43432 -31.8929 5.01714 8.93931e-10 7.31782e-09 8.52107e-10 1.5255e-09 1.25867e-08 1.49366e-09 8.93931e-10 7.31783e-09 8.52109e-10 -7.73091 5.47488 -0.417314 8.93933e-10 7.31783e-09 8.52107e-10 -2.90554 0.965183 -0.102902 8.93929e-10 7.31783e-09 8.52105e-10 -10.2786 0.731801 -0.0259123 8.9394e-10 7.31784e-09 8.52094e-10 -2.22167 -0.733487 0.20892 -2.03217e-16 0.0 -3.88251e-19 16.2328 -24.7019 1.16207 -0.7389 54.5462 1.29996 -10.0296 -19.1389 -21.3274 2.03217e-16 0.0 3.88251e-19 8.28086 -41.8111 2.36812 168.981 83.8841 -169.506 1.1756 15.8815 -8.59541
0.445066 76.4567 68.0179 -3.9862 0.916 3.1061 8.28509 16.6652 0.464944 1.41446 -9.00836 0.699387 -2.17924 -3.9792 -3.97569 2.30374 -12.8935 -6.93932 -0.0 0.0 0.0 -0.0 0.0 0.0 2.49795e-14 -5.16186e-15 -5.00378e-15 79.3723 43.5111 3.838 -28.0048 -40.4038 84.6373 -0.564409 -20.8485 -3.06802 2.20331e-11 1.09927e-08 -2.21865e-10 4.28687e-11 1.89292e-08 -3.85581e-10 2.20346e-11 1.09927e-08 -2.21884e-10 7.73091 5.47488 0.417314 2.20308e-11 1.09926e-08 -2.21862e-10 2.90554 0.965183 0.102902 2.20384e-11 1.09927e-08 -2.21869e-10 10.2786 0.731801 0.0259123 2.20237e-11 1.09927e-08 -2.21858e-10 2.22167 -0.733487 -0.20892 2.48861e-14 -5.17522e-15 -5.45726e-15 -95.5524 46.5665 21.5403 27.9641 -40.6057 -85.009 1.45939 -32.1344 5.0645 4.89166e-10 4.09477e-09 3.24614e-10 8.39762e-10 7.07201e-09 5.71645e-10 4.89165e-10 4.09477e-09 3.2462e-10 -7.73091 5.47488 -0.417314 4.89168e-10 4.09477e-09 3.24615e-10 -2.90554 0.965183 -0.102902 4.89161e-10 4.09477e-09 3.24614e-10 -10.2786 0.731801 -0.0259123 4.89174e-10 4.09477e-09 3.24601e-10 -2.22167 -0.733487 0.20892 -2.03217e-16 0.0 -3.88251e-19 16.8962 -22.3993 1.68 -0.681865 53.5021 1.31317 -9.85231 -18.9073 -21.1424 2.03217e-16 0.0 3.88251e-19 9.44636 -43.782 3.40007 168.01 84.4184 -168.526 0.86864 14.0773 -7.66514
